<svg width="24" height="24" viewBox="0 0 24 24" fill="none" xmlns="http://www.w3.org/2000/svg">
<path d="M6.65467 0.719727H4.60414C2.45885 0.719727 0.720215 2.46007 0.720215 4.60629V6.65883C0.720215 8.80506 2.45885 10.5454 4.60414 10.5454H6.65467C8.79997 10.5454 10.5386 8.80506 10.5386 6.65883V4.60629C10.5386 2.46007 8.79997 0.719727 6.65467 0.719727ZM4.60414 3.11973H6.65467C7.47395 3.11973 8.1386 3.78502 8.1386 4.60629V6.65883C8.1386 7.4801 7.47395 8.1454 6.65467 8.1454H4.60414C3.78486 8.1454 3.12021 7.4801 3.12021 6.65883V4.60629C3.12021 3.78502 3.78486 3.11973 4.60414 3.11973Z"/>
<path d="M6.65467 13.2432H4.60414C2.45885 13.2432 0.720215 14.9835 0.720215 17.1297V19.1823C0.720215 21.3285 2.45885 23.0688 4.60414 23.0688H6.65467C8.79997 23.0688 10.5386 21.3285 10.5386 19.1823V17.1297C10.5386 14.9835 8.79997 13.2432 6.65467 13.2432ZM4.60414 15.6432H6.65467C7.47395 15.6432 8.1386 16.3085 8.1386 17.1297V19.1823C8.1386 20.0035 7.47395 20.6688 6.65467 20.6688H4.60414C3.78486 20.6688 3.12021 20.0035 3.12021 19.1823V17.1297C3.12021 16.3085 3.78486 15.6432 4.60414 15.6432Z"/>
<path d="M19.5144 0.519531H17.1262C14.7471 0.519531 12.8003 2.39349 12.8003 4.72849V18.8706C12.8003 21.2056 14.7471 23.0795 17.1262 23.0795H19.5144C21.8935 23.0795 23.8403 21.2056 23.8403 18.8706V4.72849C23.8403 2.39349 21.8935 0.519531 19.5144 0.519531ZM17.1262 2.91953H19.5144C20.5881 2.91953 21.4403 3.73988 21.4403 4.72849V18.8706C21.4403 19.8592 20.5881 20.6795 19.5144 20.6795H17.1262C16.0525 20.6795 15.2003 19.8592 15.2003 18.8706V4.72849C15.2003 3.73988 16.0525 2.91953 17.1262 2.91953Z"/>
</svg>
