<?xml version="1.0" encoding="UTF-8"?>
<svg xmlns="http://www.w3.org/2000/svg" xmlns:xlink="http://www.w3.org/1999/xlink" width="109px" height="39px" viewBox="0 0 108 39" version="1.1">
<g id="surface1">
<path style=" stroke:none;fill-rule:nonzero;fill:rgb(14.901961%,14.901961%,14.901961%);fill-opacity:1;" d="M 8.328125 6.382812 C 6.246094 7.265625 3.953125 9.761719 3.230469 12.886719 C 2.3125 16.847656 6.125 18.527344 6.4375 17.976562 C 6.808594 17.332031 5.753906 17.109375 5.535156 15.054688 C 5.253906 12.398438 6.480469 9.429688 8.015625 8.132812 C 8.300781 7.890625 8.285156 8.226562 8.285156 8.847656 L 8.230469 22.046875 C 8.230469 24.867188 8.109375 25.761719 7.90625 26.644531 C 7.691406 27.539062 7.359375 28.136719 7.613281 28.371094 C 7.894531 28.628906 9.121094 28.011719 9.824219 27.015625 C 10.671875 25.820312 10.96875 24.386719 11.019531 22.824219 C 11.082031 20.949219 11.082031 17.964844 11.082031 16.265625 L 11.058594 7.390625 C 11.046875 6.71875 9.199219 6.015625 8.328125 6.382812 M 82.339844 19.601562 C 82.269531 21.066406 81.949219 22.210938 81.546875 23.019531 C 80.777344 24.589844 79.175781 25.074219 78.496094 22.824219 C 78.125 21.597656 78.105469 19.546875 78.375 17.828125 C 78.640625 16.085938 79.402344 14.765625 80.65625 14.886719 C 81.894531 15.003906 82.472656 16.617188 82.339844 19.601562 Z M 61.472656 28.703125 C 61.457031 31.144531 61.078125 33.285156 60.265625 33.90625 C 59.109375 34.785156 57.558594 34.125 57.878906 32.34375 C 58.167969 30.769531 59.511719 29.160156 61.480469 27.195312 L 61.472656 28.707031 Z M 61.160156 19.585938 C 61.089844 20.917969 60.75 22.261719 60.375 23.023438 C 59.605469 24.589844 57.988281 25.078125 57.316406 22.824219 C 56.859375 21.28125 56.96875 19.289062 57.199219 18.027344 C 57.488281 16.402344 58.203125 14.886719 59.480469 14.886719 C 60.722656 14.886719 61.339844 16.265625 61.160156 19.585938 Z M 49.078125 19.5625 C 49 20.980469 48.730469 22.164062 48.292969 23.023438 C 47.496094 24.578125 45.925781 25.074219 45.234375 22.824219 C 44.734375 21.203125 44.90625 18.992188 45.113281 17.796875 C 45.421875 16.027344 46.191406 14.765625 47.394531 14.886719 C 48.636719 15.007812 49.234375 16.617188 49.078125 19.5625 Z M 104.453125 21.21875 C 104.152344 21.21875 104.015625 21.53125 103.902344 22.0625 C 103.503906 23.90625 103.089844 24.324219 102.550781 24.324219 C 101.949219 24.324219 101.410156 23.414062 101.269531 21.585938 C 101.167969 20.144531 101.183594 17.5 101.324219 14.867188 C 101.347656 14.324219 101.203125 13.789062 99.765625 13.265625 C 99.152344 13.039062 98.25 12.703125 97.808594 13.796875 C 96.542969 16.875 96.046875 19.320312 95.933594 20.3125 C 95.925781 20.367188 95.863281 20.378906 95.855469 20.257812 C 95.78125 19.464844 95.613281 18.011719 95.59375 14.976562 C 95.589844 14.382812 95.464844 13.878906 94.816406 13.464844 C 94.394531 13.195312 93.125 12.722656 92.660156 13.285156 C 92.265625 13.746094 91.808594 14.992188 91.328125 16.464844 L 90.667969 18.464844 L 90.675781 14.015625 C 90.675781 13.554688 90.363281 13.402344 90.269531 13.375 C 89.84375 13.25 89.003906 13.039062 88.652344 13.039062 C 88.214844 13.039062 88.105469 13.285156 88.105469 13.648438 L 88.035156 20.835938 L 88.035156 21.25 C 87.792969 22.597656 87.003906 24.433594 86.152344 24.433594 C 85.292969 24.433594 84.890625 23.664062 84.890625 20.167969 C 84.890625 18.125 84.953125 17.230469 84.980469 15.753906 L 85.03125 14.101562 C 85.019531 13.648438 84.246094 13.417969 83.886719 13.332031 C 83.519531 13.25 83.203125 13.210938 82.957031 13.226562 C 82.609375 13.25 82.359375 13.480469 82.359375 13.800781 L 82.363281 14.292969 C 81.910156 13.578125 81.1875 13.082031 80.707031 12.9375 C 79.410156 12.550781 78.058594 12.890625 77.035156 14.335938 C 76.222656 15.488281 75.734375 16.785156 75.546875 18.652344 C 75.40625 20.015625 75.449219 21.402344 75.699219 22.574219 C 75.394531 23.890625 74.839844 24.433594 74.222656 24.433594 C 73.332031 24.433594 72.683594 22.960938 72.761719 20.417969 C 72.808594 18.742188 73.140625 17.566406 73.503906 15.871094 C 73.65625 15.144531 73.53125 14.765625 73.21875 14.398438 C 72.925781 14.066406 72.3125 13.894531 71.425781 14.105469 C 70.800781 14.257812 69.902344 14.414062 69.078125 14.539062 C 69.078125 14.539062 69.125 14.339844 69.167969 13.984375 C 69.378906 12.128906 67.390625 12.28125 66.75 12.875 C 66.375 13.226562 66.113281 13.644531 66.015625 14.394531 C 65.859375 15.585938 66.824219 16.144531 66.824219 16.144531 C 66.503906 17.605469 65.734375 19.503906 64.9375 20.882812 C 64.511719 21.621094 64.183594 22.167969 63.761719 22.746094 L 63.761719 22.101562 L 63.808594 15.753906 L 63.859375 14.121094 C 63.855469 13.785156 63.660156 13.664062 63.261719 13.5 C 62.90625 13.363281 62.488281 13.265625 62.058594 13.226562 C 61.511719 13.1875 61.175781 13.480469 61.1875 13.828125 C 61.1875 13.894531 61.1875 14.292969 61.1875 14.292969 C 60.738281 13.578125 60.015625 13.082031 59.535156 12.9375 C 58.238281 12.550781 56.886719 12.898438 55.863281 14.335938 C 55.050781 15.488281 54.519531 17.09375 54.371094 18.636719 C 54.230469 20.078125 54.253906 21.296875 54.449219 22.328125 C 54.246094 23.355469 53.652344 24.433594 52.980469 24.433594 C 52.125 24.433594 51.636719 23.664062 51.636719 20.167969 C 51.636719 18.125 51.699219 17.234375 51.722656 15.753906 L 51.777344 14.101562 C 51.765625 13.648438 50.988281 13.417969 50.628906 13.332031 C 50.25 13.242188 49.921875 13.210938 49.671875 13.234375 C 49.339844 13.253906 49.105469 13.554688 49.105469 13.777344 L 49.105469 14.292969 C 48.65625 13.578125 47.933594 13.082031 47.453125 12.9375 C 46.15625 12.550781 44.808594 12.902344 43.78125 14.335938 C 43.109375 15.277344 42.566406 16.316406 42.292969 18.617188 C 42.207031 19.285156 42.171875 19.90625 42.175781 20.488281 C 41.910156 22.140625 40.730469 24.050781 39.765625 24.050781 C 39.199219 24.050781 38.660156 22.9375 38.660156 20.578125 C 38.660156 17.429688 38.855469 12.949219 38.886719 12.511719 L 40.34375 12.492188 C 40.949219 12.488281 41.5 12.496094 42.3125 12.457031 C 42.71875 12.433594 43.109375 10.957031 42.691406 10.78125 C 42.5 10.695312 41.15625 10.621094 40.625 10.613281 C 40.175781 10.601562 38.925781 10.507812 38.925781 10.507812 L 39.066406 7.21875 C 39.089844 6.957031 38.75 6.824219 38.5625 6.738281 C 38.09375 6.539062 37.675781 6.445312 37.175781 6.339844 C 36.496094 6.199219 36.183594 6.339844 36.125 6.921875 C 36.03125 7.8125 35.984375 10.40625 35.984375 10.40625 C 35.484375 10.40625 33.765625 10.308594 33.265625 10.308594 C 32.796875 10.308594 32.292969 12.339844 32.9375 12.359375 L 35.832031 12.445312 L 35.796875 18.839844 C 35.324219 21.328125 33.660156 22.671875 33.660156 22.671875 C 34.019531 21.023438 33.285156 19.789062 31.972656 18.742188 C 31.488281 18.355469 30.535156 17.625 29.464844 16.824219 C 29.464844 16.824219 30.082031 16.207031 30.636719 14.964844 C 31.027344 14.089844 31.042969 13.082031 30.082031 12.859375 C 28.503906 12.492188 27.203125 13.664062 26.816406 14.914062 C 26.515625 15.886719 26.675781 16.605469 27.265625 17.351562 C 27.308594 17.402344 27.355469 17.460938 27.402344 17.519531 C 27.046875 18.214844 26.558594 19.148438 26.140625 19.871094 C 24.996094 21.886719 24.125 23.476562 23.46875 23.476562 C 22.941406 23.476562 22.949219 21.859375 22.949219 20.347656 C 22.949219 19.042969 23.042969 17.078125 23.121094 15.050781 C 23.144531 14.378906 22.8125 13.996094 22.253906 13.648438 C 21.917969 13.4375 21.191406 13.023438 20.777344 13.023438 C 20.152344 13.023438 18.34375 13.113281 16.640625 18.101562 C 16.421875 18.726562 16 19.878906 16 19.878906 L 16.035156 13.875 C 16.035156 13.730469 15.964844 13.59375 15.792969 13.507812 C 15.503906 13.347656 14.738281 13.023438 14.058594 13.023438 C 13.730469 13.023438 13.566406 13.175781 13.566406 13.480469 L 13.511719 22.871094 C 13.511719 23.585938 13.527344 24.417969 13.59375 24.78125 C 13.667969 25.140625 13.777344 25.441406 13.917969 25.621094 C 14.058594 25.792969 14.21875 25.929688 14.484375 25.984375 C 14.730469 26.035156 16.082031 26.214844 16.15625 25.6875 C 16.238281 25.0625 16.238281 24.386719 16.953125 21.851562 C 18.058594 17.917969 19.5 15.996094 20.183594 15.320312 C 20.296875 15.199219 20.433594 15.191406 20.425781 15.386719 L 20.230469 20.234375 C 20.046875 25.140625 20.925781 26.050781 22.1875 26.050781 C 23.152344 26.050781 24.511719 25.078125 25.96875 22.625 L 28.390625 18.519531 L 29.824219 19.851562 C 30.972656 20.960938 31.355469 22.003906 31.105469 23.003906 C 30.910156 23.765625 30.1875 24.546875 28.90625 23.785156 C 28.53125 23.566406 28.371094 23.394531 27.996094 23.140625 C 27.792969 23.007812 27.480469 22.96875 27.296875 23.109375 C 26.8125 23.476562 26.542969 23.9375 26.378906 24.515625 C 26.230469 25.078125 26.785156 25.378906 27.363281 25.636719 C 27.859375 25.863281 28.925781 26.0625 29.609375 26.085938 C 32.265625 26.175781 34.390625 24.789062 35.871094 21.21875 C 36.136719 24.300781 37.265625 26.050781 39.222656 26.050781 C 40.53125 26.050781 41.847656 24.339844 42.421875 22.652344 C 42.582031 23.339844 42.828125 23.9375 43.144531 24.441406 C 44.65625 26.859375 47.582031 26.339844 49.058594 24.285156 C 49.511719 23.648438 49.578125 23.425781 49.578125 23.425781 C 49.792969 25.363281 51.339844 26.039062 52.222656 26.039062 C 53.214844 26.039062 54.234375 25.566406 54.953125 23.933594 C 55.035156 24.113281 55.128906 24.28125 55.230469 24.441406 C 56.738281 26.859375 59.667969 26.339844 61.140625 24.285156 C 61.203125 24.203125 61.261719 24.113281 61.324219 24.023438 L 61.363281 25.300781 L 60.011719 26.554688 C 57.738281 28.65625 56.015625 30.253906 55.890625 32.113281 C 55.730469 34.480469 57.628906 35.363281 59.066406 35.480469 C 60.59375 35.601562 61.902344 34.746094 62.703125 33.550781 C 63.410156 32.5 63.875 30.242188 63.839844 28.011719 L 63.785156 24.757812 C 64.582031 23.824219 65.484375 22.640625 66.308594 21.253906 C 67.207031 19.746094 68.175781 17.71875 68.671875 16.144531 C 68.671875 16.144531 69.511719 16.148438 70.40625 16.089844 C 70.691406 16.070312 70.777344 16.132812 70.71875 16.34375 C 70.65625 16.601562 69.589844 20.761719 70.5625 23.535156 C 71.230469 25.429688 72.734375 26.046875 73.625 26.046875 C 74.667969 26.046875 75.667969 25.246094 76.199219 24.066406 C 76.265625 24.195312 76.332031 24.324219 76.40625 24.441406 C 77.917969 26.859375 80.832031 26.335938 82.316406 24.285156 C 82.652344 23.824219 82.839844 23.425781 82.839844 23.425781 C 83.15625 25.429688 84.703125 26.050781 85.582031 26.050781 C 86.503906 26.050781 87.378906 25.667969 88.089844 23.96875 C 88.121094 24.722656 88.167969 25.332031 88.238281 25.519531 C 88.285156 25.640625 88.546875 25.789062 88.734375 25.863281 C 89.578125 26.175781 90.4375 26.023438 90.753906 25.960938 C 90.972656 25.914062 91.144531 25.734375 91.171875 25.277344 C 91.234375 24.066406 91.191406 22.027344 91.558594 20.519531 C 92.167969 17.976562 92.734375 16.996094 93.003906 16.503906 C 93.15625 16.234375 93.328125 16.191406 93.332031 16.480469 C 93.34375 17.0625 93.375 18.78125 93.609375 21.085938 C 93.78125 22.785156 94.015625 23.785156 94.191406 24.105469 C 94.703125 25.011719 95.328125 25.058594 95.839844 25.058594 C 96.167969 25.058594 96.84375 24.964844 96.78125 24.386719 C 96.753906 24.105469 96.808594 22.363281 97.40625 19.863281 C 97.796875 18.230469 98.453125 16.757812 98.6875 16.214844 C 98.777344 16.015625 98.816406 16.175781 98.816406 16.207031 C 98.765625 17.332031 98.65625 21.007812 99.109375 23.019531 C 99.722656 25.746094 101.5 26.050781 102.121094 26.050781 C 103.4375 26.050781 104.519531 25.03125 104.886719 22.359375 C 104.972656 21.71875 104.84375 21.21875 104.453125 21.21875 "/>
</g>
</svg>
