<svg viewBox="0 0 43 41" xmlns="http://www.w3.org/2000/svg">
<path fill-rule="evenodd" clip-rule="evenodd" d="M10.9043 13.2126C10.9043 20.0835 15.5629 25.6734 21.2892 25.6734C27.0154 25.6734 31.6741 20.0835 31.6741 13.2126C31.6741 6.34069 27.0154 0.75 21.2892 0.75C15.5629 0.75 10.9043 6.34069 10.9043 13.2126ZM16.1471 6.59149C17.5172 4.83311 19.3433 3.86473 21.2892 3.86473C23.235 3.86473 25.0612 4.83311 26.4313 6.59149C27.8036 8.35268 28.5593 10.7041 28.5593 13.2126C28.5593 15.721 27.8036 18.0721 26.4313 19.8328C25.0613 21.5906 23.2351 22.5586 21.2892 22.5586C19.3433 22.5586 17.5171 21.5906 16.1471 19.8328C14.7748 18.0721 14.019 15.721 14.019 13.2126C14.019 10.7041 14.7748 8.35268 16.1471 6.59149Z"/>
<path d="M30.7912 24.6348C29.9309 24.5488 29.1637 25.1765 29.0777 26.0368C28.9917 26.8971 29.6194 27.6643 30.4797 27.7503C35.3107 28.318 39.0536 32.244 39.3899 37.0967H3.18816C3.55629 32.2581 7.28292 28.3491 12.0984 27.7503C12.9587 27.6643 13.5864 26.8971 13.5004 26.0368C13.4143 25.1765 12.6472 24.5488 11.7869 24.6348C11.6726 24.6348 0 25.9641 0 38.6441C0 39.5044 0.697422 40.2018 1.55773 40.2018H41.0204C41.8807 40.2018 42.5781 39.5044 42.5781 38.6441C42.5781 25.9641 30.9055 24.6348 30.7912 24.6348Z"/>
</svg>
